<svg xmlns="http://www.w3.org/2000/svg" version="1.1" xmlns:xlink="http://www.w3.org/1999/xlink" xmlns:svgjs="http://svgjs.dev/svgjs" width="1000" height="623" viewBox="0 0 1000 623"><g transform="matrix(1,0,0,1,-0.6060606060606233,0.2522267206477409)"><svg viewBox="0 0 396 247" data-background-color="#ffffff" preserveAspectRatio="xMidYMid meet" height="623" width="1000" xmlns="http://www.w3.org/2000/svg" xmlns:xlink="http://www.w3.org/1999/xlink"><g id="tight-bounds" transform="matrix(1,0,0,1,0.2400000000000091,-0.09999999999999432)"><svg viewBox="0 0 395.52 247.2" height="247.2" width="395.52"><g><svg></svg></g><g><svg viewBox="0 0 395.52 247.2" height="247.2" width="395.52"><g><path xmlns="http://www.w3.org/2000/svg" d="M55.039 247.2l56.699-98.205v52.473h172.044v-52.473l56.699 98.205zM197.76 0l26.403 45.732-52.806 0z" fill="#8d021f" fill-rule="nonzero" stroke="none" stroke-width="1" stroke-linecap="butt" stroke-linejoin="miter" stroke-miterlimit="10" stroke-dasharray="" stroke-dashoffset="0" font-family="none" font-weight="none" font-size="none" text-anchor="none" style="mix-blend-mode: normal" data-fill-palette-color="tertiary"></path></g><g transform="matrix(1,0,0,1,133.98553126693022,67.97999999999999)"><svg viewBox="0 0 127.54893746613955 111.24" height="111.24" width="127.54893746613955"><g><svg viewBox="0 0 127.54893746613955 111.24" height="111.24" width="127.54893746613955"><g><svg viewBox="0 0 158.2512503688312 138.01658752117856" height="111.24" width="127.54893746613955"><g><svg viewBox="0 0 158.2512503688312 138.01658752117856" height="138.01658752117856" width="158.2512503688312"><g id="textblocktransform"><svg viewBox="0 0 158.2512503688312 138.01658752117856" height="138.01658752117856" width="158.2512503688312" id="textblock"><g><svg viewBox="0 0 158.2512503688312 110.5525368" height="110.5525368" width="158.2512503688312"><g transform="matrix(1,0,0,1,0,0)"><svg width="158.2512503688312" viewBox="2.299999952316284 -34.650001525878906 49.60000228881836 34.650001525878906" height="110.5525368" data-palette-color="#8d021f"><path d="M26.3 0L17.95 0 12.3-13.35 12.05-13.35 10.15-13.35 10.15 0 2.3 0 2.3-34.65 11.55-34.65Q24.45-34.65 24.45-24.15L24.45-24.15Q24.45-21.1 23.18-18.65 21.9-16.2 19.2-14.85L19.2-14.85 26.3 0ZM10.15-18.8L11.75-18.8Q14.25-18.8 15.35-20.08 16.45-21.35 16.45-24.15L16.45-24.15Q16.45-26.7 15.28-27.9 14.1-29.1 11.5-29.1L11.5-29.1 10.15-29.1 10.15-18.8ZM36.9-34.65Q41.4-34.65 44.62-33.33 47.85-32 49.87-28.23 51.9-24.45 51.9-17.5L51.9-17.5Q51.9-7.75 47.97-3.88 44.05 0 37.45 0L37.45 0 28.15 0 28.15-34.65 36.9-34.65ZM37.9-29L36-29 36-5.7 37.9-5.7Q39.9-5.7 41.17-6.73 42.45-7.75 43.15-10.33 43.85-12.9 43.85-17.5L43.85-17.5Q43.85-22.15 43.12-24.65 42.4-27.15 41.12-28.08 39.85-29 37.9-29L37.9-29Z" opacity="1" transform="matrix(1,0,0,1,0,0)" fill="#8d021f" class="undefined-text-0" data-fill-palette-color="primary" id="text-0"></path></svg></g></svg></g><g transform="matrix(1,0,0,1,0,126.6848051800032)"><svg viewBox="0 0 158.2512503688312 11.331782341175366" height="11.331782341175366" width="158.2512503688312"><g transform="matrix(1,0,0,1,0,0)"><svg width="158.2512503688312" viewBox="2.8499999046325684 -32.45000076293945 462.2099914550781 33.10000228881836" height="11.331782341175366" data-palette-color="#8d021f"><path d="M10.95 0.6Q8.85 0.6 7.1 0.23 5.35-0.15 4.23-0.6 3.1-1.05 3.1-1.1L3.1-1.1 2.85-1.6Q2.9-1.9 3.05-3.1 3.2-4.3 3.33-6.23 3.45-8.15 3.45-10.3L3.45-10.3 5.7-10.55Q5.7-6.8 6.2-5 6.7-3.2 8.05-2.53 9.4-1.85 12.2-1.85L12.2-1.85Q15.35-1.85 17.25-3.33 19.15-4.8 19.15-7.35L19.15-7.35Q19.15-8.85 18.13-10.05 17.1-11.25 15.7-12.1 14.3-12.95 11.55-14.4L11.55-14.4Q8.95-15.75 7.3-16.88 5.65-18 4.53-19.55 3.4-21.1 3.4-23.15L3.4-23.15Q3.4-25.75 4.93-27.88 6.45-30 9.08-31.23 11.7-32.45 14.9-32.45L14.9-32.45Q16.9-32.45 18.6-32.18 20.3-31.9 21.3-31.6 22.3-31.3 22.55-31.2L22.55-31.2 22.7-30.9Q22.65-30.6 22.45-29.5 22.25-28.4 22-26.45 21.75-24.5 21.6-22.45L21.6-22.45 19.65-22.25 19.35-22.5Q19.4-22.7 19.45-23.43 19.5-24.15 19.5-25.1L19.5-25.1Q19.5-27.75 18.2-28.75 16.9-29.75 13.55-29.75L13.55-29.75Q10.8-29.75 9.03-28.38 7.25-27 7.25-24.95L7.25-24.95Q7.25-22.95 8.97-21.48 10.7-20 14.05-18.25L14.05-18.25Q17.3-16.6 19-15.53 20.7-14.45 22-12.85 23.3-11.25 23.3-9.15L23.3-9.15Q23.3-6.35 21.73-4.13 20.15-1.9 17.35-0.65 14.55 0.6 10.95 0.6L10.95 0.6ZM40.05 0.45Q36.65 0.45 34.02-1.05 31.4-2.55 29.97-5.3 28.55-8.05 28.55-11.65L28.55-11.65Q28.55-15.55 30.32-18.68 32.1-21.8 35.17-23.58 38.25-25.35 42.05-25.35L42.05-25.35Q45.5-25.35 48.15-23.85 50.8-22.35 52.25-19.63 53.7-16.9 53.7-13.3L53.7-13.3Q53.7-9.4 51.92-6.28 50.15-3.15 47.02-1.35 43.9 0.45 40.05 0.45L40.05 0.45ZM41.25-1.95Q44.9-1.95 47.15-4.58 49.4-7.2 49.4-11.55L49.4-11.55Q49.4-14.85 48.32-17.35 47.25-19.85 45.27-21.2 43.3-22.55 40.7-22.55L40.7-22.55Q37.15-22.55 34.97-19.95 32.8-17.35 32.8-13L32.8-13Q32.8-9.7 33.85-7.2 34.9-4.7 36.82-3.33 38.75-1.95 41.25-1.95L41.25-1.95ZM58.45 0.45L58.7-1.6Q60.6-1.95 61.22-2.63 61.85-3.3 61.85-5L61.85-5 61.9-20.85Q61.9-22.1 61.6-22.53 61.3-22.95 60.4-22.95L60.4-22.95 59.05-22.9 58.95-23.1 59.25-25Q59.85-25 61.6-24.95 63.35-24.9 65.4-24.9L65.4-24.9Q73.15-24.9 76.9-25.35L76.9-25.35 77.09-25.1Q77-24.55 76.65-22.55 76.3-20.55 76.15-18.3L76.15-18.3 73.75-18.15Q73.75-18.35 73.8-18.85 73.84-19.35 73.84-19.85L73.84-19.85Q73.84-21.15 73.52-21.68 73.2-22.2 72.15-22.38 71.09-22.55 68.65-22.55L68.65-22.55Q67.3-22.55 66.8-22.48 66.3-22.4 66.15-22.13 66-21.85 65.95-21.1L65.95-21.1 65.59-13.35 69.75-13.3Q70.55-13.3 72.05-13.48 73.55-13.65 74.05-13.7L74.05-13.7 74.25-13.45 73.7-10.8Q73.2-10.8 71.75-10.85 70.3-10.9 68.7-10.9L68.7-10.9Q67.3-10.9 65.55-10.65L65.55-10.65 65.4-4.75Q65.4-3.2 65.75-2.68 66.09-2.15 67.2-2.15L67.2-2.15Q68-2.15 68.84-2.23 69.7-2.3 70-2.3L70-2.3 70.15-2.05 69.8 0.15Q69.15 0.1 67.32 0.05 65.5 0 63.6 0L63.6 0Q62.15 0 60.55 0.18 58.95 0.35 58.45 0.45L58.45 0.45ZM83.54 0.2L83.89-1.8Q85.89-1.95 86.72-2.3 87.54-2.65 87.77-3.48 87.99-4.3 87.99-6.35L87.99-6.35 87.99-22.9Q84.84-22.8 83.74-22.55 82.64-22.3 82.12-21.38 81.59-20.45 81.24-17.9L81.24-17.9 78.89-17.75Q78.99-18.4 79.22-20.63 79.44-22.85 79.49-25L79.49-25 79.89-25.35 83.44-24.95 96.19-24.95 99.84-25.35 100.24-25Q100.29-22.8 100.49-20.65 100.69-18.5 100.79-17.9L100.79-17.9 98.49-17.75Q98.09-20.35 97.57-21.33 97.04-22.3 96.02-22.55 94.99-22.8 92.09-22.9L92.09-22.9Q91.84-20.5 91.64-14.93 91.44-9.35 91.44-4.65L91.44-4.65Q91.44-3.2 91.99-2.6 92.54-2 93.79-2L93.79-2Q94.69-2 95.27-2.05 95.84-2.1 95.99-2.1L95.99-2.1 96.14-1.95 95.79 0.15Q95.09 0.15 93.19 0.08 91.29 0 89.49 0L89.49 0Q87.69 0 85.94 0.08 84.19 0.15 83.54 0.2L83.54 0.2ZM112.19 0.65Q111.59-1.4 109.57-8.13 107.54-14.85 105.59-20.65L105.59-20.65Q105.19-21.8 104.37-22.35 103.54-22.9 102.09-22.95L102.09-22.95Q102.09-23 101.99-23.1L101.99-23.1 102.29-25Q102.84-25 104.24-24.95 105.64-24.9 106.99-24.9L106.99-24.9Q108.84-24.9 110.72-25.08 112.59-25.25 113.14-25.3L113.14-25.3 113.29-25 113.09-23.2Q110.99-23.05 110.34-22.75 109.69-22.45 109.69-21.65L109.69-21.65Q109.69-20.7 111.67-13.7 113.64-6.7 114.39-4.2L114.39-4.2 114.69-4.2Q115.94-7.25 118.04-13.05L118.04-13.05Q118.84-15.3 120.19-18.9L120.19-18.9Q120.19-18.9 119.54-20.85L119.54-20.85Q119.19-21.95 118.37-22.4 117.54-22.85 115.99-22.95L115.99-22.95 115.89-23.1 116.19-25Q116.74-25 118.22-24.95 119.69-24.9 121.09-24.9L121.09-24.9Q122.69-24.9 124.64-25.08 126.59-25.25 127.19-25.3L127.19-25.3 127.34-25 127.19-23.2Q125.09-23.05 124.42-22.75 123.74-22.45 123.74-21.65L123.74-21.65Q123.74-20.8 125.72-13.78 127.69-6.75 128.44-4.2L128.44-4.2 128.79-4.2Q130.39-8.1 132.69-14.53 134.99-20.95 134.99-21.75L134.99-21.75Q134.99-22.45 134.42-22.75 133.84-23.05 132.39-23.05L132.39-23.05 130.49-23.05 130.39-23.25 130.69-25.15Q131.24-25.1 133.02-25 134.79-24.9 136.39-24.9L136.39-24.9Q137.89-24.9 139.17-24.95 140.44-25 140.84-25L140.84-25 140.54-22.95Q139.39-22.85 138.92-22.5 138.44-22.15 138.04-21L138.04-21 129.79-0.2 126.24 0.65Q126.14 0.05 124.67-4.9 123.19-9.85 121.49-15.05L121.49-15.05 121.24-15.05 115.79-0.2 112.19 0.65ZM153.49 0.35L153.34 0.1 153.49-1.7Q155.59-1.85 156.31-2.15 157.04-2.45 157.04-3.15L157.04-3.15Q157.04-3.95 156.69-4.85L156.69-4.85 155.49-8.7Q154.49-8.75 151.34-8.75L151.34-8.75Q149.89-8.75 147.04-8.45L147.04-8.45 145.64-4.75Q145.29-3.6 145.29-3.35L145.29-3.35Q145.29-2.55 145.84-2.2 146.39-1.85 147.64-1.85L147.64-1.85 149.79-1.85 149.94-1.65 149.64 0.25Q149.14 0.2 147.36 0.1 145.59 0 143.89 0L143.89 0Q142.29 0 141.01 0.05 139.74 0.1 139.29 0.1L139.29 0.1 139.59-1.95Q140.69-2.1 141.34-2.73 141.99-3.35 142.64-4.85L142.64-4.85 150.49-24.7 154.04-25.35 154.39-25.3Q154.39-25.1 156.66-17.4 158.94-9.7 160.74-4.65L160.74-4.65Q161.24-3.2 162.01-2.63 162.79-2.05 164.49-1.9L164.49-1.9 164.59-1.7 164.34 0.1Q163.84 0.1 162.49 0.05 161.14 0 159.79 0L159.79 0Q157.74 0 155.89 0.15 154.04 0.3 153.49 0.35L153.49 0.35ZM147.84-10.8L151.24-10.8Q152.99-10.8 154.89-11L154.89-11 151.84-20.7 151.49-20.7 147.84-10.8ZM186.34 0.6Q185.24 0.6 184.09-0.38 182.94-1.35 181.99-3.05L181.99-3.05 177.79-10.4 174.54-10.4 174.44-5.05Q174.44-3.6 174.64-2.98 174.84-2.35 175.41-2.15 175.99-1.95 177.39-1.9L177.39-1.9 177.49-1.75 177.09 0.15Q176.49 0.1 174.91 0.08 173.34 0.05 171.74 0.05L171.74 0.05Q170.19 0.05 169.04 0.1 167.89 0.15 167.49 0.2L167.49 0.2 167.84-1.85Q169.69-2.1 170.29-2.7 170.89-3.3 170.89-4.95L170.89-4.95 170.94-20.9Q170.94-22.1 170.64-22.53 170.34-22.95 169.49-22.95L169.49-22.95 168.09-22.9 167.94-23.1 168.24-25Q168.74-25 170.14-24.95 171.54-24.9 172.94-24.9L172.94-24.9Q174.39-24.9 176.04-24.98 177.69-25.05 178.29-25.05L178.29-25.05Q182.34-25.05 184.64-23.38 186.94-21.7 186.94-18.75L186.94-18.75Q186.94-16.45 185.39-14.5 183.84-12.55 181.04-11.3L181.04-11.3 185.29-4.9Q186.49-3.1 187.59-2.35 188.69-1.6 190.24-1.6L190.24-1.6 190.44-1.35 190.19 0.2 186.34 0.6ZM178.69-12.6Q179.64-13 180.36-13.38 181.09-13.75 181.99-14.95 182.89-16.15 182.89-18.05L182.89-18.05Q182.89-22.9 175.74-22.9L175.74-22.9Q175.34-22.9 175.19-22.73 175.04-22.55 175.04-22L175.04-22Q174.64-15.9 174.64-13L174.64-13 178.69-12.6ZM193.93 0.4L194.18-1.7Q196.03-1.9 196.68-2.6 197.33-3.3 197.33-5L197.33-5 197.38-20.85Q197.38-22.1 197.08-22.53 196.78-22.95 195.88-22.95L195.88-22.95 194.53-22.9 194.43-23.1 194.73-25Q195.33-25 197.08-24.95 198.83-24.9 200.88-24.9L200.88-24.9Q209.23-24.9 213.23-25.35L213.23-25.35 213.38-25.1Q213.28-24.55 212.93-22.6 212.58-20.65 212.43-18.4L212.43-18.4 210.03-18.2Q210.03-18.4 210.08-18.88 210.13-19.35 210.13-19.85L210.13-19.85Q210.13-21.15 209.76-21.68 209.38-22.2 208.21-22.38 207.03-22.55 204.13-22.55L204.13-22.55Q202.78-22.55 202.28-22.48 201.78-22.4 201.63-22.13 201.48-21.85 201.43-21.1L201.43-21.1 201.13-14 205.23-13.95Q206.13-13.95 207.88-14.13 209.63-14.3 210.18-14.35L210.18-14.35 210.38-14.1 209.78-11.5Q209.23-11.5 207.61-11.55 205.98-11.6 204.18-11.6L204.18-11.6Q202.78-11.6 201.03-11.35L201.03-11.35Q200.88-7.55 200.88-4.5L200.88-4.5Q200.88-3.35 201.06-2.9 201.23-2.45 201.86-2.3 202.48-2.15 203.93-2.15L203.93-2.15Q207.18-2.15 208.58-2.45 209.98-2.75 210.56-3.68 211.13-4.6 211.48-6.85L211.48-6.85 213.68-7.05 213.88-6.8Q213.73-6.25 213.36-4.23 212.98-2.2 212.78 0L212.78 0 212.48 0.25Q211.13 0.2 206.88 0.1 202.63 0 199.98 0L199.98 0Q197.93 0 196.18 0.18 194.43 0.35 193.93 0.4L193.93 0.4ZM242.38 0.6Q241.63 0.5 239.2 0.25 236.78 0 235.18 0L235.18 0Q233.63 0 231.8 0.25 229.98 0.5 229.43 0.6L229.43 0.6 229.73-1.7Q232.03-2.15 232.83-3.03 233.63-3.9 233.63-6L233.63-6 233.68-27Q233.68-28.6 233.3-29.15 232.93-29.7 231.83-29.7L231.83-29.7Q231.33-29.7 230.83-29.65 230.33-29.6 230.13-29.6L230.13-29.6 230.03-29.8 230.38-32Q230.93-31.95 232.48-31.9 234.03-31.85 235.63-31.85L235.63-31.85Q237.78-31.85 240.08-31.93 242.38-32 243.23-32.05L243.23-32.05Q248.03-32.05 251.78-30.18 255.53-28.3 257.6-24.9 259.68-21.5 259.68-17.1L259.68-17.1Q259.68-12.2 257.38-8.15 255.08-4.1 251.13-1.75 247.18 0.6 242.38 0.6L242.38 0.6ZM239.78-29.6Q238.73-29.6 238.38-29.38 238.03-29.15 237.98-28.5L237.98-28.5Q237.23-9.25 237.23-6.55L237.23-6.55Q237.23-4.65 237.75-3.7 238.28-2.75 239.6-2.35 240.93-1.95 243.53-1.95L243.53-1.95Q248.93-1.95 252.03-5.68 255.13-9.4 255.13-15.9L255.13-15.9Q255.13-22.5 251.15-26.05 247.18-29.6 239.78-29.6L239.78-29.6ZM264.38 0.4L264.63-1.7Q266.48-1.9 267.13-2.6 267.78-3.3 267.78-5L267.78-5 267.82-20.85Q267.82-22.1 267.53-22.53 267.23-22.95 266.32-22.95L266.32-22.95 264.98-22.9 264.88-23.1 265.18-25Q265.78-25 267.53-24.95 269.28-24.9 271.32-24.9L271.32-24.9Q279.68-24.9 283.68-25.35L283.68-25.35 283.82-25.1Q283.73-24.55 283.38-22.6 283.03-20.65 282.88-18.4L282.88-18.4 280.48-18.2Q280.48-18.4 280.53-18.88 280.57-19.35 280.57-19.85L280.57-19.85Q280.57-21.15 280.2-21.68 279.82-22.2 278.65-22.38 277.48-22.55 274.57-22.55L274.57-22.55Q273.23-22.55 272.73-22.48 272.23-22.4 272.07-22.13 271.93-21.85 271.88-21.1L271.88-21.1 271.57-14 275.68-13.95Q276.57-13.95 278.32-14.13 280.07-14.3 280.63-14.35L280.63-14.35 280.82-14.1 280.23-11.5Q279.68-11.5 278.05-11.55 276.43-11.6 274.63-11.6L274.63-11.6Q273.23-11.6 271.48-11.35L271.48-11.35Q271.32-7.55 271.32-4.5L271.32-4.5Q271.32-3.35 271.5-2.9 271.68-2.45 272.3-2.3 272.93-2.15 274.38-2.15L274.38-2.15Q277.63-2.15 279.03-2.45 280.43-2.75 281-3.68 281.57-4.6 281.93-6.85L281.93-6.85 284.13-7.05 284.32-6.8Q284.18-6.25 283.8-4.23 283.43-2.2 283.23 0L283.23 0 282.93 0.25Q281.57 0.2 277.32 0.1 273.07 0 270.43 0L270.43 0Q268.38 0 266.63 0.18 264.88 0.35 264.38 0.4L264.38 0.4ZM297.77 0.65Q297.17-1.4 295.05-8.13 292.92-14.85 290.97-20.65L290.97-20.65Q290.62-21.75 289.75-22.3 288.87-22.85 287.37-22.95L287.37-22.95 287.27-23.1 287.57-25Q288.12-25 289.57-24.95 291.02-24.9 292.42-24.9L292.42-24.9Q293.92-24.9 296.02-25.08 298.12-25.25 298.77-25.3L298.77-25.3 298.92-25 298.77-23.2Q296.57-23.05 295.9-22.75 295.22-22.45 295.22-21.65L295.22-21.65Q295.22-20.85 297.25-13.8 299.27-6.75 300.02-4.2L300.02-4.2 300.47-4.2Q302.22-8.4 304.55-14.6 306.87-20.8 306.87-21.6L306.87-21.6Q306.87-22.4 306.27-22.73 305.67-23.05 304.22-23.05L304.22-23.05 302.22-23.05 302.12-23.25 302.37-25.15Q302.92-25.1 304.75-25 306.57-24.9 308.27-24.9L308.27-24.9Q309.82-24.9 311.12-24.95 312.42-25 312.87-25L312.87-25 312.52-22.95Q311.32-22.9 310.85-22.53 310.37-22.15 309.92-21L309.92-21 301.47-0.2 297.77 0.65ZM316.02 0.4L316.27-1.7Q318.12-1.9 318.77-2.6 319.42-3.3 319.42-5L319.42-5 319.47-20.85Q319.47-22.1 319.17-22.53 318.87-22.95 317.97-22.95L317.97-22.95 316.62-22.9 316.52-23.1 316.82-25Q317.42-25 319.17-24.95 320.92-24.9 322.97-24.9L322.97-24.9Q331.32-24.9 335.32-25.35L335.32-25.35 335.47-25.1Q335.37-24.55 335.02-22.6 334.67-20.65 334.52-18.4L334.52-18.4 332.12-18.2Q332.12-18.4 332.17-18.88 332.22-19.35 332.22-19.85L332.22-19.85Q332.22-21.15 331.84-21.68 331.47-22.2 330.3-22.38 329.12-22.55 326.22-22.55L326.22-22.55Q324.87-22.55 324.37-22.48 323.87-22.4 323.72-22.13 323.57-21.85 323.52-21.1L323.52-21.1 323.22-14 327.32-13.95Q328.22-13.95 329.97-14.13 331.72-14.3 332.27-14.35L332.27-14.35 332.47-14.1 331.87-11.5Q331.32-11.5 329.69-11.55 328.07-11.6 326.27-11.6L326.27-11.6Q324.87-11.6 323.12-11.35L323.12-11.35Q322.97-7.55 322.97-4.5L322.97-4.5Q322.97-3.35 323.14-2.9 323.32-2.45 323.94-2.3 324.57-2.15 326.02-2.15L326.02-2.15Q329.27-2.15 330.67-2.45 332.07-2.75 332.64-3.68 333.22-4.6 333.57-6.85L333.57-6.85 335.77-7.05 335.97-6.8Q335.82-6.25 335.44-4.23 335.07-2.2 334.87 0L334.87 0 334.57 0.25Q333.22 0.2 328.97 0.1 324.72 0 322.07 0L322.07 0Q320.02 0 318.27 0.18 316.52 0.35 316.02 0.4L316.02 0.4ZM341.77 0.4L342.07-1.7Q343.67-1.95 344.24-2.63 344.82-3.3 344.82-5L344.82-5 344.87-20.85Q344.87-22.1 344.57-22.53 344.27-22.95 343.37-22.95L343.37-22.95 342.02-22.9 341.87-23.1 342.17-25Q342.42-25 343.67-24.95 344.92-24.9 347.02-24.9L347.02-24.9Q348.12-24.9 349.74-25.05 351.37-25.2 351.87-25.25L351.87-25.25 351.67-23.15Q350.32-23 349.77-22.68 349.22-22.35 349.12-21.85 349.02-21.35 348.87-19.8L348.87-19.8Q348.37-13.1 348.37-4.95L348.37-4.95Q348.37-3.7 348.59-3.13 348.82-2.55 349.49-2.35 350.17-2.15 351.62-2.15L351.62-2.15Q354.02-2.15 355.14-2.55 356.27-2.95 356.84-4.13 357.42-5.3 357.87-7.85L357.87-7.85 360.07-8.1 360.22-7.8Q360.12-7.15 359.74-4.83 359.37-2.5 359.07 0.05L359.07 0.05 358.82 0.35Q357.67 0.3 353.94 0.15 350.22 0 347.67 0L347.67 0Q345.67 0 343.94 0.18 342.22 0.35 341.77 0.4L341.77 0.4ZM374.37 0.45Q370.96 0.45 368.34-1.05 365.71-2.55 364.29-5.3 362.87-8.05 362.87-11.65L362.87-11.65Q362.87-15.55 364.64-18.68 366.42-21.8 369.49-23.58 372.56-25.35 376.37-25.35L376.37-25.35Q379.81-25.35 382.46-23.85 385.12-22.35 386.56-19.63 388.01-16.9 388.01-13.3L388.01-13.3Q388.01-9.4 386.24-6.28 384.46-3.15 381.34-1.35 378.21 0.45 374.37 0.45L374.37 0.45ZM375.56-1.95Q379.21-1.95 381.46-4.58 383.71-7.2 383.71-11.55L383.71-11.55Q383.71-14.85 382.64-17.35 381.56-19.85 379.59-21.2 377.62-22.55 375.01-22.55L375.01-22.55Q371.46-22.55 369.29-19.95 367.12-17.35 367.12-13L367.12-13Q367.12-9.7 368.17-7.2 369.21-4.7 371.14-3.33 373.06-1.95 375.56-1.95L375.56-1.95ZM392.96 0.3L393.26-1.75Q395.01-2.05 395.59-2.68 396.16-3.3 396.16-4.95L396.16-4.95 396.21-20.85Q396.21-22.1 395.91-22.53 395.61-22.95 394.76-22.95L394.76-22.95 393.36-22.9 393.21-23.1 393.51-25Q393.76-25 394.99-24.95 396.21-24.9 398.21-24.9L398.21-24.9Q399.56-24.9 401.26-24.98 402.96-25.05 403.66-25.05L403.66-25.05Q408.16-25.05 410.44-23.15 412.71-21.25 412.71-17.95L412.71-17.95Q412.71-15.75 411.36-13.75 410.01-11.75 407.84-10.53 405.66-9.3 403.21-9.3L403.21-9.3 399.76-9.3 399.71-5.8Q399.71-4.05 399.84-3.28 399.96-2.5 400.31-2.25 400.66-2 401.51-2L401.51-2Q402.16-2 402.81-2.05 403.46-2.1 403.66-2.1L403.66-2.1 403.76-1.9 403.36 0.1Q402.91 0.1 401.71 0.05 400.51 0 399.26 0L399.26 0Q397.61 0 395.31 0.1 393.01 0.2 392.96 0.3L392.96 0.3ZM404.01-11.45Q408.66-12.2 408.66-17.25L408.66-17.25Q408.66-20.05 406.91-21.38 405.16-22.7 401.36-22.7L401.36-22.7Q400.66-22.7 400.51-22.63 400.36-22.55 400.31-22.1L400.31-22.1Q399.91-15.75 399.86-12L399.86-12 404.01-11.45ZM416.71 0.4L416.96-1.7Q418.81-1.9 419.46-2.6 420.11-3.3 420.11-5L420.11-5 420.16-20.85Q420.16-22.1 419.86-22.53 419.56-22.95 418.66-22.95L418.66-22.95 417.31-22.9 417.21-23.1 417.51-25Q418.11-25 419.86-24.95 421.61-24.9 423.66-24.9L423.66-24.9Q432.01-24.9 436.01-25.35L436.01-25.35 436.16-25.1Q436.06-24.55 435.71-22.6 435.36-20.65 435.21-18.4L435.21-18.4 432.81-18.2Q432.81-18.4 432.86-18.88 432.91-19.35 432.91-19.85L432.91-19.85Q432.91-21.15 432.53-21.68 432.16-22.2 430.99-22.38 429.81-22.55 426.91-22.55L426.91-22.55Q425.56-22.55 425.06-22.48 424.56-22.4 424.41-22.13 424.26-21.85 424.21-21.1L424.21-21.1 423.91-14 428.01-13.95Q428.91-13.95 430.66-14.13 432.41-14.3 432.96-14.35L432.96-14.35 433.16-14.1 432.56-11.5Q432.01-11.5 430.38-11.55 428.76-11.6 426.96-11.6L426.96-11.6Q425.56-11.6 423.81-11.35L423.81-11.35Q423.66-7.55 423.66-4.5L423.66-4.5Q423.66-3.35 423.83-2.9 424.01-2.45 424.63-2.3 425.26-2.15 426.71-2.15L426.71-2.15Q429.96-2.15 431.36-2.45 432.76-2.75 433.33-3.68 433.91-4.6 434.26-6.85L434.26-6.85 436.46-7.05 436.66-6.8Q436.51-6.25 436.13-4.23 435.76-2.2 435.56 0L435.56 0 435.26 0.25Q433.91 0.2 429.66 0.1 425.41 0 422.76 0L422.76 0Q420.71 0 418.96 0.18 417.21 0.35 416.71 0.4L416.71 0.4ZM460.96 0.6Q459.86 0.6 458.71-0.38 457.56-1.35 456.61-3.05L456.61-3.05 452.41-10.4 449.16-10.4 449.06-5.05Q449.06-3.6 449.26-2.98 449.46-2.35 450.03-2.15 450.61-1.95 452.01-1.9L452.01-1.9 452.11-1.75 451.71 0.15Q451.11 0.1 449.53 0.08 447.96 0.05 446.36 0.05L446.36 0.05Q444.81 0.05 443.66 0.1 442.51 0.15 442.11 0.2L442.11 0.2 442.46-1.85Q444.31-2.1 444.91-2.7 445.51-3.3 445.51-4.95L445.51-4.95 445.56-20.9Q445.56-22.1 445.26-22.53 444.96-22.95 444.11-22.95L444.11-22.95 442.71-22.9 442.56-23.1 442.86-25Q443.36-25 444.76-24.95 446.16-24.9 447.56-24.9L447.56-24.9Q449.01-24.9 450.66-24.98 452.31-25.05 452.91-25.05L452.91-25.05Q456.96-25.05 459.26-23.38 461.56-21.7 461.56-18.75L461.56-18.75Q461.56-16.45 460.01-14.5 458.46-12.55 455.66-11.3L455.66-11.3 459.91-4.9Q461.11-3.1 462.21-2.35 463.31-1.6 464.86-1.6L464.86-1.6 465.06-1.35 464.81 0.2 460.96 0.6ZM453.31-12.6Q454.26-13 454.98-13.38 455.71-13.75 456.61-14.95 457.51-16.15 457.51-18.05L457.51-18.05Q457.51-22.9 450.36-22.9L450.36-22.9Q449.96-22.9 449.81-22.73 449.66-22.55 449.66-22L449.66-22Q449.26-15.9 449.26-13L449.26-13 453.31-12.6Z" opacity="1" transform="matrix(1,0,0,1,0,0)" fill="#8d021f" class="undefined-text-1" data-fill-palette-color="secondary" id="text-1"></path></svg></g></svg></g></svg></g></svg></g><g></g></svg></g></svg></g></svg></g></svg></g><defs></defs></svg><rect width="395.52" height="247.2" fill="none" stroke="none" visibility="hidden"></rect></g></svg></g></svg>